# xmcd
#
# Track frame offsets:
#	150
#	13675
#	25900
#	37917
#	50457
#	63322
#	75860
#	88055
#	100305
#	113405
#	127377
#	140532
#	151922
#	163590
#	174832
#	186837
#	199810
#	215672
#	227395
#	238272
#	250052
#	262292
#	271685
#	284837
#	297220
# Disc length: 4136 seconds
# Revision: 4
# Processed by: cddbd v1.5.2PL0 Copyright (c) Steve Scherf et al.
#
# Submitted via: libkcddb 0.31
#
DISCID=62102619
DTITLE=Sonny Terry and Brownie McGhee - Back Home Blues
DYEAR=1900
DGENRE=Unknown
TTITLE0=Custard Pie Blues
TTITLE1=Whoopin' the Blues
TTITLE2=My Fault
TTITLE3=Working Man's Blues
TTITLE4=Shakedown Blues
TTITLE5=Poor Boy Blues
TTITLE6=Harmonica Blues
TTITLE7=Big-Legged Woman
TTITLE8=Bad Blood
TTITLE9=Sweet Woman
TTITLE10=Back Home Blues
TTITLE11=Harmonica and Washboard Breakdown
TTITLE12=Dealing with the Devil
TTITLE13=Worried Life Blues
TTITLE14=Mean Ole Frisco
TTITLE15=Go On Blues
TTITLE16=Lonesome Train
TTITLE17=Not Guilty Blues
TTITLE18=Lovin' with a Feeling
TTITLE19=The Way I Feel
TTITLE20=No Love Blues
TTITLE21=Fox Chase
TTITLE22=Sportin' Life Blues
TTITLE23=Diggin' My Tomatoes
TTITLE24=Blowin' The Blues
EXTD=
EXTT0=
EXTT1=
EXTT2=
EXTT3=
EXTT4=
EXTT5=
EXTT6=
EXTT7=
EXTT8=
EXTT9=
EXTT10=
EXTT11=
EXTT12=
EXTT13=
EXTT14=
EXTT15=
EXTT16=
EXTT17=
EXTT18=
EXTT19=
EXTT20=
EXTT21=
EXTT22=
EXTT23=
EXTT24=
PLAYORDER=
